PathFileType	4	(X/Y/Z)	C:/Users/dbak576/Desktop/Duncan Bakke Modelling Files/H29s1/Static_H29s1.trc	
DataRate	CameraRate	NumFrames	NumMarkers	Units	OrigDataRate	OrigDataStartFrame	OrigNumFrames	
200.00	200.00	4	66	mm	200.00	184	734	
Frame#	Time	LFHD			RFHD			LBHD			RBHD			C7			T10			CLAV			STRN			RBack			LASI			RASI			LPSI			RACR1			RUA1			RElbow			RElbowM			RFA1			RWRR			RWRU			RCAR			LACR1			LUA1			LElbow			LElbowM			LFA1			LWRR			LWRU			LCAR			RTH1			RTH3			RTH2			RLFC			RMFC			RTB1			RTB3			RTB2			RTB4			RLMAL			RCAL			RMT1			RMT5			RToe			LTH1			LTH3			LTH2			LTH4			LLFC			LMFC			LTB1			LTB3			LTB2			LTB4			LLMAL			LCAL			LMT1			LMT5			LToe			RPSI			RMMAL			LMMAL			RTH4			*61			*62			*63			*64			*65			
		X1	Y1	Z1	X2	Y2	Z2	X3	Y3	Z3	X4	Y4	Z4	X5	Y5	Z5	X6	Y6	Z6	X7	Y7	Z7	X8	Y8	Z8	X9	Y9	Z9	X10	Y10	Z10	X11	Y11	Z11	X12	Y12	Z12	X13	Y13	Z13	X14	Y14	Z14	X15	Y15	Z15	X16	Y16	Z16	X17	Y17	Z17	X18	Y18	Z18	X19	Y19	Z19	X20	Y20	Z20	X21	Y21	Z21	X22	Y22	Z22	X23	Y23	Z23	X24	Y24	Z24	X25	Y25	Z25	X26	Y26	Z26	X27	Y27	Z27	X28	Y28	Z28	X29	Y29	Z29	X30	Y30	Z30	X31	Y31	Z31	X32	Y32	Z32	X33	Y33	Z33	X34	Y34	Z34	X35	Y35	Z35	X36	Y36	Z36	X37	Y37	Z37	X38	Y38	Z38	X39	Y39	Z39	X40	Y40	Z40	X41	Y41	Z41	X42	Y42	Z42	X43	Y43	Z43	X44	Y44	Z44	X45	Y45	Z45	X46	Y46	Z46	X47	Y47	Z47	X48	Y48	Z48	X49	Y49	Z49	X50	Y50	Z50	X51	Y51	Z51	X52	Y52	Z52	X53	Y53	Z53	X54	Y54	Z54	X55	Y55	Z55	X56	Y56	Z56	X57	Y57	Z57	X58	Y58	Z58	X59	Y59	Z59	X60	Y60	Z60	X61	Y61	Z61	X62	Y62	Z62	X63	Y63	Z63	X64	Y64	Z64	X65	Y65	Z65	X66	Y66	Z66	

184	0.915	-40.40065	-385.29993	1691.15576	58.87963	-385.04156	1694.92932	-48.49329	-527.92847	1596.54919	100.87016	-512.80212	1613.23535	19.66119	-553.60278	1485.45410	15.50862	-554.29187	1165.21777	20.27956	-350.54437	1449.67920	19.37569	-253.59351	1304.73083	135.47816	-586.42700	1356.51147	-165.76698	-317.22516	1017.55402	203.34520	-315.99310	1017.75708	-32.12317	-569.06934	1040.58704	164.62080	-496.87997	1523.39465	331.55331	-461.22864	1468.66736	461.86514	-393.20679	1453.75940	445.45593	-290.51987	1377.33252	589.49762	-306.52689	1458.54163	648.57172	-195.53220	1506.11597	672.03729	-216.58498	1435.90979	741.18225	-193.91388	1475.57483	-128.19545	-496.01266	1520.30225	-284.25351	-475.80728	1454.10706	-437.74231	-428.58136	1428.96130	-429.34341	-345.93341	1344.28564	-556.62445	-359.62595	1436.53076	-644.04565	-265.15897	1494.24536	-664.85803	-254.78412	1427.70972	-734.16431	-245.73610	1471.44421	237.87402	-411.42096	796.99084	225.06096	-387.36963	626.83600	222.49968	-340.82816	720.39319	221.71640	-398.55649	510.06735	65.78945	-389.37878	501.80444	160.39752	-340.35547	381.45590	157.53831	-375.75818	212.08846	216.28456	-380.95547	301.69391	159.33656	-357.79953	296.65533	191.42766	-469.00232	79.72565	143.89520	-527.97992	49.04831	151.92323	-306.81827	27.39827	251.52058	-365.13831	33.18532	189.89639	-259.47409	29.92154	-201.37602	-375.20239	790.80652	-193.43472	-366.97931	619.18719	-180.50032	-314.44067	709.07715	-197.02373	-371.89783	705.45068	-199.46571	-384.47665	533.78314	-46.09386	-365.30069	505.03949	-151.14635	-323.07611	399.32925	-146.01518	-359.52661	230.03137	-202.50830	-366.32028	317.90842	-146.91716	-338.15173	315.32330	-176.88449	-461.21545	81.28595	-131.81134	-517.07611	46.66436	-137.57030	-302.31415	40.46559	-227.74391	-348.47525	24.26175	-166.46346	-244.52466	26.96141	45.40194	-579.14935	1032.35852	107.32881	-431.00836	77.89073	-91.41887	-443.48734	78.96333	233.04274	-398.68103	711.75409															 
185	0.920	-40.35307	-385.33646	1691.15247	58.91616	-385.03448	1694.90247	-48.47771	-527.91547	1596.57190	100.41295	-513.21790	1613.01599	19.66703	-553.62946	1485.44934	15.51437	-554.30597	1165.21313	20.25685	-350.57376	1449.71509	19.35423	-253.57173	1304.84106	135.44745	-586.44122	1356.44812	-165.75130	-317.27795	1017.56989	203.44472	-316.01624	1017.90472	-32.12532	-569.01068	1040.56299	164.57512	-496.90875	1523.39844	331.54626	-461.23590	1468.69739	461.81342	-393.44775	1453.93811	445.45761	-290.56189	1377.39172	589.78125	-306.53229	1458.62952	648.51410	-195.52411	1506.18042	672.01532	-216.58984	1435.94641	740.46387	-193.74771	1475.56213	-128.12885	-496.05771	1520.29041	-284.27527	-475.85046	1454.13123	-437.74072	-428.59775	1428.99927	-429.17874	-346.76541	1344.48108	-556.62567	-359.67398	1436.61560	-644.02496	-265.24234	1494.34192	-663.72485	-253.85043	1426.71362	-733.75659	-245.16298	1471.41199	237.81865	-411.40219	796.96033	225.01129	-387.34332	626.82013	222.58914	-340.76660	720.39764	221.68340	-398.55920	510.05698	65.79147	-389.35605	501.80261	160.40067	-340.34329	381.45810	157.53273	-375.75757	212.07513	216.28685	-380.95850	301.68768	159.30014	-357.79059	296.63782	191.43135	-468.99225	79.72790	143.84532	-527.96985	49.11842	151.92793	-306.80457	27.42572	250.66608	-365.33832	32.84502	189.89980	-259.48642	29.90671	-201.33037	-375.25534	790.81335	-193.42010	-366.98459	619.20038	-180.49078	-314.44507	709.07953	-197.01515	-371.91287	705.45758	-199.42030	-384.45987	533.83130	-46.08430	-365.30145	505.03519	-151.16771	-323.06985	399.33762	-145.98625	-359.51932	230.06747	-202.48938	-366.31732	317.88290	-146.90741	-338.15759	315.32147	-176.93901	-461.28906	81.19492	-131.73174	-517.01556	46.59304	-137.63089	-302.34927	40.46579	-227.76694	-348.47766	24.27405	-166.47482	-244.61494	26.93765	45.50001	-579.11945	1032.31689	107.32664	-431.00830	77.87769	-91.48560	-443.54300	78.92178	233.07697	-398.41342	711.59888															 
186	0.925	-40.30951	-385.33990	1691.11719	58.95361	-385.02139	1694.87244	-48.46665	-527.91180	1596.58667	99.96581	-513.52997	1612.58777	19.67239	-553.65607	1485.44714	15.51808	-554.34674	1165.20007	20.22093	-350.65594	1449.76379	19.29890	-253.54294	1304.94519	135.41618	-586.47589	1356.40894	-165.74799	-317.30533	1017.59418	203.52338	-316.04077	1017.88367	-32.13292	-568.94867	1040.53979	164.57367	-496.96436	1523.33875	331.53326	-461.23480	1468.72131	461.74677	-393.59308	1454.04443	445.47208	-290.60873	1377.42725	589.96240	-306.47574	1458.63843	648.44604	-195.50868	1506.25110	672.01147	-216.58502	1435.98083	739.95953	-193.15744	1475.73657	-128.06479	-496.10379	1520.26721	-284.30304	-475.89459	1454.16968	-437.73917	-428.61310	1429.03796	-429.18231	-347.31863	1344.72339	-556.64185	-359.73251	1436.71765	-644.03162	-265.31659	1494.42627	-662.72742	-252.87532	1426.30615	-733.34991	-244.56245	1471.39185	237.80847	-411.39380	796.92133	224.94226	-387.32501	626.77283	222.66721	-340.70474	720.40198	221.66258	-398.56656	510.03979	65.80018	-389.34393	501.79938	160.40007	-340.33331	381.45517	157.52599	-375.75577	212.06877	216.28920	-380.96277	301.68311	159.26607	-357.77621	296.60907	191.42245	-468.97559	79.72391	143.71638	-527.99719	49.13668	151.93813	-306.80093	27.44398	249.98442	-365.65274	32.62393	189.89867	-259.49493	29.87707	-201.31618	-375.29993	790.81415	-193.41629	-366.96381	619.20654	-180.48026	-314.46091	709.08148	-196.99973	-371.91977	705.46210	-199.39049	-384.44940	533.85797	-46.06872	-365.30460	505.03162	-151.18011	-323.05856	399.33234	-145.96700	-359.50107	230.11301	-202.46819	-366.31137	317.86786	-146.88133	-338.15958	315.32544	-176.94830	-461.34839	81.15742	-131.71638	-517.06848	46.39415	-137.35150	-301.99646	40.65221	-227.73145	-348.41968	24.26646	-166.43062	-244.53510	26.82466	45.58050	-579.06659	1032.27734	107.32794	-431.00308	77.85400	-91.55885	-443.59436	78.89426	233.05919	-398.41110	711.59918															 
187	0.930	-40.32370	-385.29306	1691.08533	58.98960	-385.01801	1694.83630	-48.46103	-527.92700	1596.59644	99.50141	-513.74762	1611.96533	19.67609	-553.67181	1485.44519	15.51557	-554.40137	1165.18494	20.20610	-350.71817	1449.83789	19.16721	-253.45143	1305.14197	135.39830	-586.51196	1356.37024	-165.70998	-317.27493	1017.61646	203.54420	-316.07428	1017.71667	-32.12194	-568.84344	1040.51855	164.60336	-497.02798	1523.26917	331.52771	-461.24487	1468.74170	461.67734	-393.61740	1454.07568	445.46808	-290.64474	1377.42896	590.03510	-306.45917	1458.76099	648.38287	-195.47983	1506.31775	672.03210	-216.56342	1436.02026	739.72119	-192.25734	1476.02417	-127.99566	-496.15167	1520.24512	-284.33368	-475.94989	1454.19238	-437.73859	-428.63138	1429.07275	-429.31613	-347.47723	1344.94958	-556.64709	-359.77905	1436.85681	-644.05182	-265.37543	1494.50720	-661.82587	-251.95236	1426.59924	-732.95331	-243.97185	1471.35657	237.81337	-411.38983	796.90332	224.84901	-387.30084	626.70160	222.74802	-340.62967	720.42200	221.64465	-398.57367	510.02408	65.79941	-389.33218	501.79941	160.38936	-340.32724	381.45258	157.52548	-375.75558	212.07166	216.28674	-380.97214	301.68472	159.23482	-357.77087	296.57123	191.41115	-468.96387	79.71504	143.50024	-528.01239	49.05758	151.94502	-306.80478	27.44858	249.73085	-365.96356	32.67632	189.91646	-259.46292	29.90754	-201.32993	-375.33322	790.81012	-193.41115	-366.93600	619.19891	-180.47446	-314.47723	709.07422	-196.98529	-371.91821	705.46063	-199.37642	-384.44763	533.86359	-46.04846	-365.30801	505.03116	-151.18381	-323.04370	399.31845	-145.95923	-359.47546	230.15274	-202.45459	-366.29758	317.85486	-146.85751	-338.14853	315.33401	-176.93759	-461.39902	81.14458	-131.73351	-517.15851	46.23793	-137.24858	-301.90372	40.58734	-227.66119	-348.32397	24.25269	-166.33846	-244.28850	26.72555	45.64650	-579.02307	1032.23706	107.33890	-430.98676	77.81947	-91.63671	-443.64389	78.87589	233.26967	-398.40353	711.63159															 
